<?xml version="1.0" encoding="utf-8"?>
<!-- Generator: Adobe Illustrator 16.0.0, SVG Export Plug-In . SVG Version: 6.00 Build 0)  -->
<!DOCTYPE svg PUBLIC "-//W3C//DTD SVG 1.1//EN" "http://www.w3.org/Graphics/SVG/1.1/DTD/svg11.dtd">
<svg version="1.1" xmlns="http://www.w3.org/2000/svg" xmlns:xlink="http://www.w3.org/1999/xlink" x="0px" y="0px"
	 width="484.172px" height="317.276px" viewBox="0 0 484.172 317.276" enable-background="new 0 0 484.172 317.276"
	 xml:space="preserve">
<g id="pages">
</g>
<g id="Layer_1">
	<rect y="1.143" width="72.107" height="23.711"/>
	<rect x="24.199" y="1.143" width="23.709" height="100.307"/>
	<rect x="410.096" y="1.143" width="72.108" height="23.711"/>
	<rect x="434.295" y="1.143" width="23.709" height="100.307"/>
	<rect x="77.591" y="39.44" width="76.486" height="23.711"/>
	<rect x="77.591" y="1.143" width="23.708" height="100.307"/>
	<rect x="130.368" y="1.143" width="23.709" height="100.307"/>
	<rect x="249.152" y="39.44" width="76.486" height="23.711"/>
	<rect x="249.152" y="1.143" width="23.708" height="100.307"/>
	<rect x="301.931" y="1.143" width="23.709" height="100.307"/>
	<rect x="159.561" y="39.44" width="55.766" height="23.711"/>
	<rect x="159.561" y="1.143" width="70.649" height="23.711"/>
	<rect x="159.561" y="77.738" width="72.108" height="23.712"/>
	<rect x="159.561" y="1.143" width="23.708" height="100.307"/>
	<path d="M373.806,0c-28.367,0-51.363,22.995-51.363,51.362c0,28.367,22.996,51.362,51.363,51.362
		c28.366,0,51.362-22.996,51.362-51.362C425.168,22.995,402.172,0,373.806,0 M373.806,79.378c-15.474,0-28.016-12.543-28.016-28.016
		s12.542-28.017,28.016-28.017c15.473,0,28.017,12.544,28.017,28.017S389.279,79.378,373.806,79.378"/>
	<rect x="24.181" y="111.039" width="48.133" height="203.65"/>
	<path d="M181.704,108.719c-57.592,0-104.278,46.687-104.278,104.278s46.687,104.279,104.278,104.279
		c57.593,0,104.279-46.688,104.279-104.279S239.297,108.719,181.704,108.719 M181.704,269.877c-31.413,0-56.879-25.465-56.879-56.88
		c0-31.413,25.466-56.879,56.879-56.879c31.414,0,56.88,25.467,56.88,56.879C238.584,244.412,213.118,269.877,181.704,269.877"/>
	<path d="M379.894,108.719c-57.592,0-104.28,46.687-104.28,104.278s46.688,104.279,104.28,104.279
		c57.592,0,104.278-46.688,104.278-104.279S437.486,108.719,379.894,108.719 M379.894,269.877c-31.413,0-56.879-25.465-56.879-56.88
		c0-31.413,25.466-56.879,56.879-56.879s56.879,25.467,56.879,56.879C436.773,244.412,411.307,269.877,379.894,269.877"/>
</g>
<g id="chart_icons">
</g>
</svg>
